<svg width="255.1181" height="141.7323" xmlns="http://www.w3.org/2000/svg">
 <metadata id="metadata26">image/svg+xml</metadata>

 <g>
  <title>background</title>
  <rect fill="none" id="canvas_background" height="402" width="582" y="-1" x="-1"/>
 </g>
 <g>
  <title>Layer 1</title>
  <g id="Layer1000">
   <path stroke="#fff" fill="#ffffff" fill-rule="evenodd" d="m26.332544,133.81472c5.742932,-3.621485 6.318342,-7.382712 10.831023,-8.688899c8.689301,-2.514606 4.44905,3.374423 13.297637,-0.042727c17.203092,-6.644038 21.333781,-58.849819 52.457538,-47.079051c34.036203,12.872872 61.562962,-38.554022 73.99464,-58.740739c10.783405,1.721644 25.291278,21.084235 33.4629,28.737634c10.82112,10.132316 23.670818,17.54368 31.862245,29.587649c-13.874732,0.453408 -31.299055,-8.149786 -38.443535,-6.059936c-7.144269,2.089598 -2.846499,2.994404 -1.200333,5.397417c4.586634,3.215076 1.359619,-1.05435 1.861286,-1.339364l2.05639,-1.168205c9.40377,-5.345391 34.806506,18.448234 40.478013,6.304485c0.54528,-1.163429 0.913577,-2.666663 1.05685,-4.55444c0.037925,-0.491611 -0.016856,-1.00911 -0.264634,-1.453218c-0.246935,-0.444109 -0.304666,-0.745711 -0.652946,-1.092302c-6.358164,-6.349725 -19.605866,-21.848795 -27.030993,-27.386458c9.851709,2.935089 20.288731,15.997719 33.79917,12.787166c-4.542599,-3.502352 -10.936581,-6.494494 -15.821771,-9.956633c-27.524653,-19.500322 -33.713628,-31.947935 -44.504829,-41.147295c-23.157352,-19.742609 -33.711732,13.910382 -43.485904,29.276496c-39.970236,62.839509 -59.502569,-11.640325 -85.739239,52.0776c-2.936255,7.131126 -5.4665,11.870799 -9.322231,18.992374c-8.076176,14.914716 -4.727801,5.022174 -16.510536,8.244539c-13.880843,3.796917 -8.105885,18.621655 -37.764674,19.203495c10.651931,8.292041 19.840792,1.721644 25.583935,-1.899589z" id="path6"/>
  </g>
 </g>
</svg>