<?xml version="1.0" encoding="UTF-8" standalone="no"?>
<svg
   xmlns:dc="http://purl.org/dc/elements/1.1/"
   xmlns:cc="http://creativecommons.org/ns#"
   xmlns:rdf="http://www.w3.org/1999/02/22-rdf-syntax-ns#"
   xmlns:svg="http://www.w3.org/2000/svg"
   xmlns="http://www.w3.org/2000/svg"
   viewBox="0 0 255.1181 141.7323"
   id="svg20"
   height="141.7323"
   width="255.1181"
   version="1.1">
  <metadata
     id="metadata26">
    <rdf:RDF>
      <cc:Work
         rdf:about="">
        <dc:format>image/svg+xml</dc:format>
        <dc:type
           rdf:resource="http://purl.org/dc/dcmitype/StillImage" />
      </cc:Work>
    </rdf:RDF>
  </metadata>
  <defs
     id="defs24" />
  <g
     id="Layer1000">
    <path
       id="path2"
       style="fill:#fff7a2;fill-rule:evenodd"
       d="m 73.7367,111.0965 -6.5162,-0.0104 2.3081,9.7475 108.4687,11.022 6.4397,-19.5488 -1.6883,-0.257 2.1891,-6.0004 H 75.6821 Z" />
    <path
       id="path4"
       style="fill:#490101;fill-rule:evenodd"
       d="m 72.0947,118.2921 103.8637,9.9487 7.4866,-21.0558 -107.0534,-0.006 z" />
    <path
       id="path6"
       style="fill:#490101;fill-rule:evenodd"
       d="m 79.8912,62.3723 c 2.7257,-1.4409 2.9988,-2.9374 5.1406,-3.4571 4.1241,-1.0005 2.1116,1.3426 6.3113,-0.017 8.1649,-2.6435 10.1254,-23.4149 24.8973,-18.7316 16.1542,5.1218 29.2189,-15.3397 35.1192,-23.3715 5.118,0.685 12.0037,8.3889 15.8821,11.434 5.1359,4.0314 11.2346,6.9802 15.1224,11.7722 -6.5852,0.1804 -14.8551,-3.2426 -18.246,-2.4111 -3.3908,0.8314 -1.351,1.1914 -0.5697,2.1475 2.1769,1.2792 0.6453,-0.4195 0.8834,-0.5329 l 0.976,-0.4648 c 4.4632,-2.1268 16.5198,7.3401 19.2116,2.5084 0.2588,-0.4629 0.4336,-1.061 0.5016,-1.8121 0.018,-0.1956 -0.008,-0.4015 -0.1256,-0.5782 -0.1172,-0.1767 -0.1446,-0.2967 -0.3099,-0.4346 -3.0177,-2.5264 -9.3053,-8.6931 -12.8294,-10.8964 4.6758,1.1678 9.6294,6.3651 16.0417,5.0877 -2.156,-1.3935 -5.1907,-2.584 -7.5093,-3.9615 -13.0637,-7.7587 -16.0011,-12.7113 -21.1228,-16.3715 -10.9909,-7.8551 -16.0002,5.5346 -20.6392,11.6484 -18.9706,25.0023 -28.241,-4.6314 -40.6934,20.7204 -1.3936,2.8373 -2.5945,4.7231 -4.4245,7.5566 -3.8331,5.9342 -2.2439,1.9982 -7.8362,3.2803 -6.5881,1.5107 -3.8472,7.4091 -17.9238,7.6406 5.0556,3.2992 9.4168,0.685 12.1426,-0.7558 z" />
    <path
       id="path8"
       style="fill:#490101;fill-rule:evenodd"
       d="m 115.4695,116.8333 c 1.2528,-0.6311 0.7313,1.4229 1.3737,-1.4956 0.2712,-1.2311 -0.1445,-2.1891 -0.3467,-3.0054 -2.4867,1.0601 -2.8524,1.7942 -1.027,4.501 z" />
    <g
       id="Layer1001">
      <path
         id="path10"
         style="fill:#4b0001;fill-rule:evenodd"
         d="m 86.0588,72.1925 -9.687,26.8729 11.0929,2.9686 9.2184,-31.8728 11.8742,-0.4677 -9.8438,29.9974 10.4683,-0.1568 12.6556,-39.3727 -41.7167,6.4067 z m 37.2232,10.2511 -4.0626,15.6241 8.9057,-0.6254 5.4685,-19.6859 -12.9684,1.5627 z m 0.7814,-8.1244 h 9.5302 l 2.1872,-6.2498 -12.0311,2.0313 z m 17.1424,4.279 -5.9371,19.529 7.1871,1.5627 4.0617,-11.2487 10.6242,13.5928 9.5302,-5.6253 -12.186,-10.3116 12.4988,-7.9675 -7.9685,-1.0941 -11.0929,8.4371 4.5313,-10.937 -13.4369,1.4059 z" />
      <path
         id="path12"
         style="fill:#ff9e02;fill-rule:evenodd"
         d="m 84.9902,70.3671 -9.687,26.873 11.0929,2.9685 9.2184,-31.8728 11.8743,-0.4677 -9.8439,29.9974 10.4684,-0.1568 12.6556,-39.3726 -41.7167,6.4067 z m 37.2233,10.2511 -4.0627,15.6242 8.9057,-0.6255 5.4685,-19.6858 -12.9683,1.5627 z m 0.7813,-8.1243 h 9.5302 l 2.1872,-6.2499 -12.0311,2.0314 z m 17.1424,4.279 -5.9371,19.529 7.1871,1.5627 4.0617,-11.2488 10.6243,13.5928 9.5302,-5.6253 -12.1861,-10.3115 12.4988,-7.9675 -7.9684,-1.0941 -11.0929,8.437 4.5312,-10.937 -13.4369,1.4059 z" />
    </g>
    <path
       id="path15"
       style="fill:#fff7a2;fill-rule:evenodd"
       d="M 103.6899,118.5006 H 99.779 v -0.34 c 0.3354,-0.0599 0.549,-0.1463 0.6407,-0.2607 0.0917,-0.1161 0.1388,-0.3488 0.1388,-0.6991 v -4.4435 c 0,-0.3541 -0.0442,-0.5868 -0.1317,-0.6959 -0.0868,-0.1109 -0.3025,-0.199 -0.6478,-0.2642 v -0.34 h 7.0299 v 1.95 h -0.9948 c -0.2656,-0.6078 -0.5036,-0.9828 -0.7122,-1.122 -0.2086,-0.1392 -0.5039,-0.2079 -0.8882,-0.2079 h -1.4021 v 5.1289 c 0,0.3573 0.0496,0.5953 0.1513,0.7114 0.102,0.1162 0.3449,0.1973 0.727,0.243 z m 12.1499,0.0829 c -1.424,0 -2.4939,-0.2961 -3.2086,-0.8879 -0.7143,-0.5918 -1.0717,-1.4775 -1.0717,-2.6576 0,-0.7731 0.1711,-1.4353 0.5185,-1.9832 0.3471,-0.5497 0.8564,-0.9668 1.5307,-1.2523 0.6728,-0.2854 1.4746,-0.4278 2.4046,-0.4278 1.4496,0 2.5386,0.2957 3.2657,0.8857 0.7271,0.5883 1.0894,1.4655 1.0894,2.6278 0,0.6499 -0.1066,1.2084 -0.3227,1.6752 -0.216,0.4664 -0.5231,0.8489 -0.9204,1.1481 -0.397,0.2993 -0.8737,0.5196 -1.4269,0.6605 -0.556,0.141 -1.1737,0.2115 -1.8586,0.2115 z m -1.9701,-3.6846 c 0,1.039 0.1763,1.8122 0.5284,2.3197 0.3499,0.5071 0.8882,0.7607 1.6106,0.7607 0.3723,0 0.6896,-0.0705 0.9502,-0.2132 0.2628,-0.1445 0.4739,-0.3436 0.6375,-0.5989 0.1619,-0.2571 0.278,-0.5599 0.3478,-0.9105 0.0719,-0.352 0.1062,-0.7363 0.1062,-1.157 0,-0.6835 -0.0768,-1.2576 -0.2305,-1.7209 -0.1512,-0.4614 -0.3822,-0.812 -0.6899,-1.0461 -0.3074,-0.2359 -0.7019,-0.3542 -1.1811,-0.3542 -0.7019,0 -1.2261,0.238 -1.5657,0.7151 -0.3425,0.4756 -0.5135,1.2119 -0.5135,2.2053 z m 13.616,3.6017 v -0.34 c 0.2037,-0.0244 0.3648,-0.0563 0.4842,-0.0967 0.1193,-0.0389 0.2086,-0.0953 0.2656,-0.1675 0.0591,-0.0722 0.0942,-0.1636 0.1091,-0.2766 0.0148,-0.1108 0.0223,-0.25 0.0223,-0.4136 v -5.1448 h -0.5883 c -0.2929,0 -0.5131,0.023 -0.67,0.0722 -0.1537,0.0475 -0.2904,0.1233 -0.4041,0.2274 -0.1119,0.102 -0.2111,0.2412 -0.2929,0.4137 -0.0818,0.1746 -0.1516,0.3382 -0.2036,0.4933 h -0.9973 v -1.8108 h 8.558 v 1.8108 h -0.9972 c -0.0921,-0.2345 -0.1637,-0.4052 -0.2186,-0.516 -0.052,-0.1094 -0.1115,-0.2026 -0.1763,-0.2801 -0.0666,-0.0776 -0.136,-0.1428 -0.2079,-0.1938 -0.0726,-0.051 -0.1491,-0.0935 -0.2338,-0.125 -0.0818,-0.0301 -0.1834,-0.0527 -0.3077,-0.0687 -0.1236,-0.0159 -0.2847,-0.023 -0.4834,-0.023 H 130.62 v 5.1448 c 0,0.1813 0.007,0.3205 0.0223,0.4136 0.0149,0.0953 0.04,0.1728 0.0793,0.2309 0.04,0.0581 0.0868,0.1056 0.1417,0.141 0.057,0.0368 0.1339,0.0687 0.233,0.0984 0.0992,0.0301 0.2334,0.0528 0.4048,0.0705 v 0.34 z m 18.6065,-7.0434 v 1.6415 h -0.9977 c -0.1586,-0.3276 -0.2953,-0.5475 -0.4066,-0.664 -0.1115,-0.1144 -0.2457,-0.2058 -0.3994,-0.2727 -0.1562,-0.067 -0.4197,-0.1006 -0.7916,-0.1006 h -1.5855 v 2.4762 h 0.9598 c 0.2135,0 0.38,-0.0209 0.5014,-0.0651 0.1219,-0.0422 0.2207,-0.1144 0.3007,-0.2129 0.0818,-0.1006 0.1562,-0.2553 0.2302,-0.465 h 0.8213 v 2.0959 h -0.8213 c -0.0691,-0.2008 -0.1434,-0.3524 -0.2252,-0.4579 -0.0826,-0.1042 -0.1814,-0.1799 -0.2954,-0.2239 -0.1144,-0.0456 -0.2854,-0.0669 -0.5117,-0.0669 h -0.9598 v 2.7546 h 1.5781 c 0.1686,0 0.3124,-0.007 0.4292,-0.0227 0.1141,-0.0159 0.2185,-0.0425 0.3127,-0.0793 0.0918,-0.039 0.1785,-0.09 0.2632,-0.1551 0.0867,-0.0652 0.1611,-0.1357 0.2252,-0.2114 0.0677,-0.0758 0.1342,-0.1761 0.2086,-0.2993 0.0719,-0.125 0.1512,-0.2943 0.238,-0.5107 h 0.998 l -0.1392,1.8827 h -7.1464 v -0.34 c 0.1813,-0.0351 0.3226,-0.0723 0.4271,-0.1109 0.1041,-0.0407 0.181,-0.0952 0.2302,-0.1657 0.0524,-0.0705 0.0846,-0.1601 0.0995,-0.2677 0.0149,-0.1091 0.0223,-0.2465 0.0223,-0.4101 v -4.4489 c 0,-0.1622 -0.007,-0.2978 -0.0198,-0.4069 -0.01,-0.1112 -0.0421,-0.199 -0.0942,-0.2695 -0.0496,-0.0687 -0.1264,-0.1233 -0.2306,-0.1675 -0.1044,-0.0422 -0.2486,-0.0808 -0.4345,-0.1162 v -0.34 z m 14.5248,7.0434 h -3.9754 v -0.34 c 0.4116,-0.0687 0.6602,-0.1707 0.7469,-0.3046 0.0893,-0.1338 0.1314,-0.3786 0.1314,-0.7327 v -5.0513 h -1.6053 c -0.0967,0.7979 -0.283,1.6557 -0.5557,2.5733 -0.2755,0.9194 -0.5759,1.6925 -0.9056,2.3193 -0.3304,0.629 -0.6803,1.055 -1.0476,1.2806 -0.3672,0.2253 -0.8386,0.3383 -1.4095,0.3383 -0.4416,0 -0.8436,-0.0425 -1.2083,-0.1233 v -1.2487 h 0.9303 c 0.0694,0.301 0.2532,0.4526 0.5536,0.4526 0.2383,0 0.4639,-0.074 0.675,-0.2238 0.2135,-0.1499 0.454,-0.5107 0.7196,-1.083 0.2677,-0.5745 0.5164,-1.27 0.7494,-2.0906 0.233,-0.8209 0.3499,-1.4163 0.3499,-1.7878 0,-0.2535 -0.0545,-0.4264 -0.164,-0.5124 -0.1091,-0.0882 -0.3003,-0.1445 -0.5705,-0.1693 v -0.34 h 6.5858 v 0.34 c -0.3425,0.0616 -0.5709,0.141 -0.6803,0.238 -0.1091,0.0967 -0.1637,0.3609 -0.1637,0.794 v 4.2941 c 0,0.4087 0.0521,0.6693 0.1537,0.7784 0.1017,0.1109 0.3329,0.1955 0.6903,0.2589 z m 9.2536,-7.0434 v 0.34 c -0.3722,0.0421 -0.6127,0.1232 -0.7221,0.2429 -0.1091,0.1201 -0.1636,0.3595 -0.1636,0.7172 v 1.6925 c 0.6601,-0.0443 1.2179,-0.0669 1.6801,-0.0669 1.2154,0 2.1263,0.1653 2.7291,0.4947 0.6027,0.3311 0.9055,0.856 0.9055,1.5746 0,1.3649 -1.2901,2.0484 -3.8684,2.0484 h -4.4789 v -0.34 c 0.3354,-0.0599 0.5489,-0.1463 0.6406,-0.2607 0.0918,-0.1161 0.1385,-0.347 0.1385,-0.6937 v -4.4489 c 0,-0.3541 -0.0443,-0.5868 -0.1314,-0.6959 -0.0871,-0.1109 -0.3024,-0.199 -0.6477,-0.2642 v -0.34 z m -0.8857,3.6177 v 2.8056 c 1.2604,0.0602 2.0866,-0.0316 2.4787,-0.2692 0.3924,-0.2398 0.5882,-0.6183 0.5882,-1.1379 0,-0.953 -0.6601,-1.43 -1.9825,-1.43 h -0.2557 c -0.3403,0 -0.6155,0.0106 -0.8287,0.0315 z" />
    <path
       id="path17"
       style="fill:#fff7a2;fill-rule:evenodd"
       d="M 103.6899,118.6355 H 99.779 99.6441 v -0.1349 -0.34 -0.113 l 0.1119,-0.0198 c 0.1573,-0.0276 0.2862,-0.0627 0.3839,-0.102 0.0847,-0.0344 0.1431,-0.0708 0.1739,-0.1091 0.0322,-0.0411 0.0584,-0.1101 0.0776,-0.2057 0.0212,-0.1081 0.0322,-0.2448 0.0322,-0.4102 v -4.4435 c 0,-0.1693 -0.0103,-0.3081 -0.0305,-0.4147 -0.0177,-0.0939 -0.0418,-0.1604 -0.0712,-0.1969 l -0.001,-0.001 c -0.0287,-0.0365 -0.0861,-0.073 -0.1714,-0.1077 l -4e-4,4e-4 c -0.0998,-0.0404 -0.2323,-0.0769 -0.3949,-0.1073 l -0.1101,-0.0209 v -0.1116 -0.34 -0.1349 h 0.1349 7.0299 0.135 v 0.1349 1.95 0.1349 h -0.135 -0.9948 -0.0874 l -0.0358,-0.0811 c -0.1293,-0.2961 -0.2529,-0.5365 -0.368,-0.7182 v -7e-4 c -0.1076,-0.17 -0.2072,-0.2858 -0.2957,-0.3446 -0.0907,-0.0602 -0.2022,-0.1063 -0.334,-0.1371 -0.1374,-0.0318 -0.2978,-0.0481 -0.4795,-0.0481 h -1.2671 v 4.9939 c 0,0.1703 0.0117,0.3098 0.0343,0.4182 0.0202,0.0956 0.0482,0.1647 0.0832,0.2047 0.0348,0.0393 0.102,0.0762 0.2001,0.1091 v 3e-4 c 0.1109,0.0365 0.2582,0.0663 0.4417,0.0882 l 0.119,0.0142 v 0.1197 0.34 0.1349 z m -3.7759,-0.2698 h 3.641 v -0.0872 c -0.1463,-0.0223 -0.2723,-0.051 -0.3758,-0.0853 h -7e-4 c -0.1437,-0.0482 -0.25,-0.1109 -0.3169,-0.187 -0.0666,-0.0758 -0.1144,-0.1849 -0.1442,-0.3258 -0.0269,-0.1282 -0.0407,-0.2869 -0.0407,-0.4742 v -5.1289 -0.1349 h 0.1349 1.4021 c 0.2019,0 0.3822,0.0188 0.5401,0.0552 h 4e-4 c 0.1632,0.0383 0.3042,0.0971 0.4221,0.1754 h 4e-4 c 0.119,0.0793 0.244,0.2213 0.3732,0.4256 l 4e-4,-3e-4 c 0.1108,0.1749 0.2284,0.4002 0.3513,0.6739 h 0.7724 v -1.6801 h -6.76 v 0.095 c 0.1324,0.0294 0.245,0.063 0.3364,0.0998 l 4e-4,7e-4 c 0.1289,0.0528 0.2227,0.1162 0.2808,0.1895 0.0581,0.0723 0.1006,0.1781 0.1264,0.3159 0.0234,0.124 0.0355,0.2798 0.0355,0.4643 v 4.4435 c 0,0.1835 -0.0128,0.3379 -0.0372,0.4622 v 4e-4 c -0.0273,0.1374 -0.0716,0.2447 -0.1307,0.3198 l -0.001,0.001 c -0.0609,0.0758 -0.1554,0.1396 -0.2833,0.1916 -0.0892,0.0361 -0.1987,0.0684 -0.3272,0.0956 z m 15.9258,0.3527 c -0.7225,0 -1.3589,-0.0762 -1.906,-0.2274 -0.5536,-0.153 -1.0175,-0.3842 -1.3887,-0.6916 -0.3743,-0.3099 -0.6555,-0.6977 -0.8425,-1.162 -0.1852,-0.459 -0.278,-0.9923 -0.278,-1.5994 0,-0.3966 0.0446,-0.7678 0.1335,-1.1095 0.0896,-0.3443 0.2249,-0.6602 0.4062,-0.946 l 4e-4,4e-4 c 0.1817,-0.2879 0.4055,-0.5408 0.6704,-0.7579 0.2638,-0.2157 0.5716,-0.3984 0.9215,-0.5464 0.346,-0.1467 0.7249,-0.2572 1.1343,-0.3298 0.4084,-0.0722 0.85,-0.109 1.3224,-0.109 0.7363,0 1.383,0.0758 1.938,0.2259 0.5627,0.1523 1.0341,0.3832 1.4127,0.6903 v -4e-4 c 0.3803,0.3078 0.6661,0.6924 0.8563,1.151 0.1884,0.4547 0.283,0.9828 0.283,1.5816 0,0.3329 -0.0276,0.6439 -0.0829,0.9315 -0.0552,0.2893 -0.1399,0.5567 -0.2525,0.8 -0.1123,0.2429 -0.2497,0.4653 -0.4098,0.6647 -0.16,0.1998 -0.3449,0.379 -0.5517,0.5348 -0.2051,0.1544 -0.4321,0.2897 -0.6789,0.4037 -0.2465,0.1144 -0.5125,0.2079 -0.7958,0.2798 h -7e-4 c -0.2833,0.0715 -0.5833,0.1261 -0.8985,0.1619 h -4e-4 c -0.3151,0.0354 -0.6463,0.0538 -0.9923,0.0538 z m -1.8345,-0.4866 c 0.5217,0.1441 1.134,0.2167 1.8345,0.2167 0.3386,0 0.6594,-0.0177 0.9622,-0.0517 0.3032,-0.0347 0.5918,-0.0868 0.8631,-0.1555 0.2695,-0.0683 0.5203,-0.1565 0.7498,-0.2627 0.2277,-0.1052 0.4384,-0.2309 0.6293,-0.3747 h 3e-4 c 0.1895,-0.1424 0.3581,-0.306 0.504,-0.4881 0.1466,-0.1823 0.272,-0.3856 0.375,-0.6087 0.1031,-0.2224 0.1807,-0.4689 0.232,-0.7377 0.0521,-0.2699 0.0779,-0.5646 0.0779,-0.8812 0,-0.5641 -0.0875,-1.0578 -0.2617,-1.4782 -0.1725,-0.4158 -0.4321,-0.7653 -0.7777,-1.0447 v -4e-4 c -0.3485,-0.2826 -0.7862,-0.4962 -1.3121,-0.6385 -0.5323,-0.1442 -1.156,-0.2168 -1.8686,-0.2168 -0.4575,0 -0.8836,0.0351 -1.2763,0.1049 -0.3906,0.0694 -0.7501,0.1738 -1.0763,0.312 -0.3237,0.137 -0.6091,0.3067 -0.8549,0.5075 -0.244,0.2001 -0.4494,0.4313 -0.6141,0.6923 v 7e-4 c -0.1661,0.2621 -0.2908,0.5522 -0.3729,0.8688 -0.0829,0.3184 -0.1243,0.6665 -0.1243,1.0422 0,0.5731 0.0864,1.0735 0.2581,1.4995 0.1697,0.4211 0.425,0.7731 0.7647,1.0543 0.3424,0.2837 0.7727,0.4976 1.288,0.64 z m -7e-4,-3.3329 c 0,0.5103 0.0429,0.954 0.1286,1.3294 0.0839,0.3691 0.2096,0.674 0.3757,0.9138 0.1608,0.2333 0.3655,0.4086 0.6116,0.5248 0.2501,0.1183 0.5468,0.1774 0.8882,0.1774 0.1775,0 0.3407,-0.0166 0.4888,-0.0499 0.1459,-0.0326 0.2787,-0.0818 0.3966,-0.1463 0.1211,-0.0665 0.2309,-0.1462 0.3287,-0.238 0.0977,-0.092 0.1852,-0.1976 0.2603,-0.3151 0.0747,-0.119 0.1406,-0.2515 0.1955,-0.3956 0.0552,-0.1445 0.0998,-0.3011 0.1331,-0.4689 h 7e-4 c 0.0344,-0.1707 0.061,-0.351 0.078,-0.5387 0.0166,-0.1842 0.0251,-0.3821 0.0251,-0.5921 0,-0.6704 -0.0747,-1.2307 -0.2231,-1.6787 l -7e-4,-4e-4 c -0.0723,-0.2206 -0.1629,-0.4133 -0.2706,-0.5765 -0.1066,-0.1615 -0.2313,-0.2975 -0.3722,-0.4045 h -7e-4 c -0.1399,-0.1073 -0.3014,-0.1891 -0.4831,-0.2433 -0.1838,-0.0549 -0.3896,-0.0828 -0.6162,-0.0828 -0.3322,0 -0.6212,0.0556 -0.8634,0.1661 -0.2384,0.109 -0.4371,0.2734 -0.5925,0.4919 l -7e-4,7e-4 c -0.1601,0.2224 -0.2816,0.5096 -0.3627,0.8595 v 4e-4 c -0.0832,0.3569 -0.125,0.7802 -0.125,1.2668 z m -0.1342,1.3882 c -0.0903,-0.3966 -0.1357,-0.8598 -0.1357,-1.3882 0,-0.5072 0.0443,-0.9506 0.1321,-1.3278 0.0893,-0.3842 0.2253,-0.7029 0.4066,-0.9555 0.1831,-0.2574 0.4175,-0.4511 0.7002,-0.5804 0.2797,-0.1275 0.6056,-0.1916 0.9753,-0.1916 0.2529,0 0.4841,0.0319 0.6934,0.0942 0.2125,0.0637 0.4027,0.1601 0.5695,0.2879 l -4e-4,4e-4 c 0.1658,0.1257 0.311,0.2833 0.4342,0.4706 0.1222,0.1853 0.2235,0.3995 0.3025,0.6404 h -7e-4 c 0.1583,0.4777 0.238,1.0667 0.238,1.7626 0,0.2107 -0.009,0.4164 -0.0273,0.6162 -0.0181,0.1965 -0.0457,0.3864 -0.0822,0.567 h 7e-4 c -0.0361,0.1817 -0.085,0.3527 -0.1459,0.5121 -0.0602,0.1579 -0.1346,0.3067 -0.2206,0.4437 l -4e-4,7e-4 c -0.0878,0.1375 -0.1894,0.26 -0.3028,0.3669 -0.114,0.1074 -0.2422,0.2001 -0.3832,0.2777 h -3e-4 c -0.1413,0.0772 -0.2975,0.1353 -0.4671,0.1732 -0.1693,0.0379 -0.3521,0.057 -0.5476,0.057 -0.3807,0 -0.7161,-0.068 -1.0029,-0.2036 -0.2901,-0.1367 -0.5302,-0.3421 -0.7186,-0.6156 -0.1856,-0.2677 -0.3247,-0.6041 -0.4168,-1.0079 z m 13.4804,2.2135 v -0.34 -0.1201 l 0.119,-0.0138 c 0.1016,-0.012 0.1905,-0.0258 0.2635,-0.0403 l 3e-4,-8e-4 c 0.0762,-0.0148 0.1417,-0.0318 0.1934,-0.0492 l 0.001,-7e-4 c 0.0499,-0.0163 0.0931,-0.0358 0.1264,-0.0567 0.0301,-0.0187 0.056,-0.0417 0.0754,-0.0665 l 0.001,-0.001 c 0.0205,-0.0255 0.0379,-0.0545 0.0503,-0.0868 0.0138,-0.0354 0.0241,-0.0768 0.0297,-0.1221 v -8e-4 c 0.007,-0.051 0.0124,-0.1105 0.0156,-0.1753 v -7e-4 c 0.004,-0.0641 0.005,-0.1384 0.005,-0.2195 v -5.0099 h -0.4533 c -0.1434,0 -0.2674,0.006 -0.3718,0.0167 -0.102,0.011 -0.1888,0.0276 -0.2582,0.0492 h -0.001 c -0.0662,0.0202 -0.131,0.0482 -0.1916,0.0822 v -4e-4 c -0.0577,0.0326 -0.1122,0.0719 -0.1604,0.1162 l -4e-4,3e-4 c -0.0488,0.0446 -0.0956,0.0985 -0.1391,0.1597 -0.044,0.062 -0.0854,0.1332 -0.1226,0.2118 -0.0411,0.0875 -0.0786,0.1704 -0.1105,0.2476 v 7e-4 c -0.034,0.0818 -0.0641,0.159 -0.0874,0.2298 l -0.0309,0.0928 h -0.0966 -0.9973 -0.135 v -0.1349 -1.8108 -0.1349 h 0.135 8.558 0.135 v 0.1349 1.8108 0.1349 h -0.135 -0.9972 -0.0914 l -0.034,-0.086 c -0.0464,-0.1187 -0.0875,-0.2193 -0.1218,-0.3011 h -4e-4 c -0.0361,-0.0864 -0.0669,-0.1544 -0.0917,-0.2047 l -4e-4,-10e-4 c -0.0234,-0.0489 -0.0485,-0.0953 -0.0747,-0.1367 v -4e-4 c -0.0244,-0.0389 -0.0531,-0.0779 -0.0839,-0.1147 -0.0298,-0.0344 -0.061,-0.0673 -0.0911,-0.0957 -0.029,-0.0269 -0.0602,-0.0527 -0.091,-0.0743 l 4e-4,-4e-4 c -0.0305,-0.0212 -0.0638,-0.0418 -0.0988,-0.0609 -0.0333,-0.0177 -0.0691,-0.0343 -0.1052,-0.0478 v -4e-4 c -0.0344,-0.012 -0.0747,-0.024 -0.1197,-0.034 -0.0457,-0.0102 -0.0992,-0.0194 -0.1569,-0.0269 v 4e-4 c -0.0599,-0.007 -0.1282,-0.0135 -0.2029,-0.0167 h -7e-4 c -0.0751,-0.004 -0.164,-0.005 -0.2635,-0.005 h -0.3889 v 5.0099 c 0,0.176 0.007,0.3088 0.0202,0.3924 v 7e-4 c 0.006,0.0389 0.0145,0.0754 0.0251,0.1066 0.009,0.0269 0.0202,0.0506 0.0326,0.069 0.0145,0.0213 0.0315,0.0418 0.0493,0.0595 0.017,0.017 0.035,0.0323 0.0538,0.0439 l 7e-4,7e-4 c 0.0209,0.0135 0.0478,0.0277 0.079,0.0404 0.0326,0.0135 0.0729,0.0276 0.1193,0.0415 l 0.001,7e-4 c 0.0425,0.0127 0.096,0.0251 0.1583,0.0357 0.0655,0.0114 0.1395,0.0213 0.2206,0.0294 l 0.1211,0.0124 v 0.1215 0.34 0.1349 h -0.1349 -4.0154 -0.1349 z m 0.2699,-0.2221 v 0.0872 h 3.7455 v -0.085 l -0.1172,-0.0178 c -0.0712,-0.0123 -0.1357,-0.0269 -0.1913,-0.0439 v 4e-4 c -0.0524,-0.0156 -0.1009,-0.033 -0.1455,-0.0514 l -4e-4,-3e-4 c -0.045,-0.0191 -0.0864,-0.0404 -0.1211,-0.0627 -0.0358,-0.023 -0.0694,-0.0503 -0.0992,-0.08 -0.0287,-0.0287 -0.0566,-0.0624 -0.0811,-0.0985 -0.0269,-0.0393 -0.0485,-0.0846 -0.0651,-0.1342 -0.0153,-0.0439 -0.0273,-0.0956 -0.0358,-0.1512 -0.016,-0.1017 -0.0245,-0.2487 -0.0245,-0.4349 v -5.1448 -0.1349 h 0.135 0.5238 c 0.0984,0 0.1909,0.002 0.2762,0.006 0.0847,0.004 0.1601,0.0103 0.2235,0.018 l 0.001,4e-4 c 0.0649,0.008 0.1261,0.0191 0.1814,0.0312 0.0563,0.0124 0.1083,0.0279 0.1547,0.0446 l 0.002,3e-4 c 0.0475,0.0178 0.0939,0.0394 0.1378,0.0627 0.041,0.0223 0.0835,0.0489 0.1253,0.0783 h 7e-4 c 0.0401,0.028 0.0808,0.0616 0.1194,0.0977 0.0386,0.0358 0.0765,0.0762 0.1126,0.118 l 0.002,0.002 c 0.0347,0.0415 0.0701,0.0904 0.1045,0.1449 0.0311,0.0499 0.0616,0.1048 0.0892,0.1625 0.0294,0.0603 0.063,0.1339 0.0988,0.2189 h -3e-4 l 0.0906,0.2214 h 0.771 v -1.541 h -8.2882 v 1.541 h 0.7674 c 0.0192,-0.0525 0.0397,-0.1045 0.0613,-0.1562 h 4e-4 c 0.0357,-0.0861 0.0743,-0.1725 0.1151,-0.2593 v -3e-4 c 0.0439,-0.0932 0.0935,-0.1782 0.1466,-0.2529 0.0545,-0.0768 0.114,-0.1448 0.1771,-0.2026 l 3e-4,-3e-4 c 0.0634,-0.0584 0.1342,-0.1091 0.2097,-0.1516 l 7e-4,-7e-4 c 0.0744,-0.0421 0.1565,-0.0768 0.2443,-0.1038 v -3e-4 c 0.0865,-0.0269 0.1899,-0.0471 0.3099,-0.0599 0.1176,-0.0124 0.2511,-0.0187 0.4002,-0.0187 h 0.5883 0.1349 v 0.1349 5.1448 c 0,0.0821 -0.002,0.1615 -0.006,0.2344 -0.004,0.0723 -0.01,0.1392 -0.0177,0.1973 -0.008,0.0665 -0.0241,0.1285 -0.0461,0.1845 -0.023,0.0591 -0.0542,0.1115 -0.091,0.1579 -0.0372,0.0468 -0.0857,0.0896 -0.1434,0.1261 -0.0546,0.0344 -0.1179,0.0634 -0.1859,0.0857 v -3e-4 c -0.0666,0.0223 -0.1428,0.0421 -0.2263,0.0588 v -8e-4 c -0.0525,0.0107 -0.1074,0.0202 -0.1647,0.0287 z m 18.6064,-6.8213 v 1.6415 0.1349 h -0.1349 -0.9977 -0.0839 l -0.0372,-0.0765 c -0.0761,-0.1572 -0.1473,-0.2893 -0.2121,-0.3952 -0.0634,-0.1034 -0.1205,-0.1813 -0.1697,-0.2334 l -0.001,-10e-4 c -0.0486,-0.0496 -0.1031,-0.0957 -0.1619,-0.1357 -0.0591,-0.04 -0.1239,-0.0761 -0.1934,-0.1062 v 3e-4 c -0.0672,-0.0287 -0.1604,-0.051 -0.279,-0.0658 -0.1243,-0.0156 -0.2777,-0.0238 -0.4594,-0.0238 h -1.4506 v 2.2064 h 0.8249 c 0.1023,0 0.1923,-0.005 0.268,-0.0145 0.0734,-0.009 0.136,-0.0238 0.187,-0.0422 l 0.002,-0.001 c 0.0478,-0.0163 0.0921,-0.0397 0.1314,-0.0677 h 7e-4 c 0.039,-0.0276 0.0754,-0.0627 0.108,-0.1027 0.0337,-0.0418 0.068,-0.0974 0.1013,-0.1657 l 4e-4,-4e-4 c 0.035,-0.0708 0.0701,-0.1579 0.1059,-0.2589 l 0.0322,-0.0899 h 0.0949 0.8213 0.1349 v 0.1349 2.0959 0.1349 h -0.1349 -0.8213 -0.0956 l -0.0315,-0.091 c -0.0326,-0.0942 -0.0666,-0.1778 -0.1017,-0.249 l -3e-4,-3e-4 c -0.0333,-0.0684 -0.068,-0.1254 -0.1027,-0.1704 -0.033,-0.0418 -0.0709,-0.0789 -0.1112,-0.1094 l -7e-4,-7e-4 c -0.0387,-0.0294 -0.0815,-0.0535 -0.1254,-0.0705 h -0.001 c -0.0471,-0.0184 -0.108,-0.0333 -0.1813,-0.0425 -0.0776,-0.01 -0.1721,-0.0149 -0.2808,-0.0149 h -0.8249 v 2.4848 h 1.4432 c 0.0846,0 0.1608,-0.002 0.2274,-0.005 h 3e-4 c 0.0677,-0.004 0.1296,-0.009 0.1835,-0.0163 0.052,-0.007 0.1023,-0.017 0.148,-0.0287 l 0.001,-3e-4 c 0.0453,-0.0114 0.0889,-0.0252 0.1289,-0.0407 0.0421,-0.0178 0.0821,-0.0383 0.1186,-0.0595 0.0376,-0.0224 0.0765,-0.0489 0.1155,-0.0787 l 7e-4,-7e-4 c 0.0404,-0.0304 0.0775,-0.0616 0.1105,-0.0924 0.0329,-0.0308 0.0641,-0.0641 0.0931,-0.0985 l 0.002,-0.002 c 0.0287,-0.0322 0.0595,-0.0729 0.0914,-0.119 0.0319,-0.046 0.0662,-0.0995 0.1009,-0.1579 l 4e-4,-4e-4 0.001,-0.002 c 0.034,-0.0602 0.0704,-0.1307 0.1076,-0.21 0.0376,-0.0815 0.0783,-0.1757 0.1208,-0.2812 l 0.0343,-0.085 h 0.0907 0.998 0.1456 l -0.011,0.1445 -0.1392,1.8826 -0.009,0.1254 h -0.1254 -7.1464 -0.1349 v -0.1349 -0.34 -0.1112 l 0.1098,-0.0213 c 0.0885,-0.017 0.1664,-0.0343 0.2316,-0.0513 0.0665,-0.0174 0.1253,-0.0354 0.1742,-0.0535 v 4e-4 c 0.0397,-0.0156 0.0751,-0.0347 0.1041,-0.0553 0.0255,-0.0184 0.0468,-0.0393 0.0624,-0.0612 l 0.002,-0.004 c 0.0184,-0.0248 0.034,-0.0539 0.0453,-0.085 l 4e-4,-0.001 c 0.0127,-0.0344 0.0223,-0.0747 0.0283,-0.1194 0.007,-0.0502 0.0124,-0.1087 0.0156,-0.1728 v -7e-4 c 0.004,-0.0637 0.005,-0.1374 0.005,-0.2181 v -4.4489 c 0,-0.0811 -0.002,-0.1541 -0.005,-0.2167 -0.003,-0.0652 -0.008,-0.1243 -0.0138,-0.1753 v -0.003 c -0.004,-0.0429 -0.012,-0.0822 -0.0241,-0.1165 h -3e-4 c -0.0117,-0.033 -0.0269,-0.0617 -0.0446,-0.0857 l -4e-4,-4e-4 c -0.0159,-0.022 -0.0375,-0.0429 -0.0637,-0.0616 l -0.002,-0.001 c -0.0294,-0.0212 -0.0666,-0.0414 -0.1087,-0.0595 v -3e-4 c -0.0446,-0.0177 -0.101,-0.0358 -0.1686,-0.0539 -0.0698,-0.0187 -0.1498,-0.0368 -0.238,-0.0534 l -0.1101,-0.0213 v -0.1112 -0.34 -0.1349 h 0.1349 7.2134 0.1349 z m -0.2699,1.5066 v -1.3717 h -6.9435 v 0.095 c 0.0535,0.0116 0.1027,0.0233 0.1477,0.0354 0.0754,0.0202 0.1427,0.0425 0.2015,0.0658 l 0.003,0.001 c 0.0609,0.0262 0.1162,0.056 0.1626,0.09 v 3e-4 c 0.0495,0.0358 0.0913,0.0765 0.1243,0.1226 0.0336,0.0463 0.0612,0.097 0.0811,0.1526 v 0.001 c 0.0184,0.0538 0.0318,0.1133 0.0375,0.1792 h 4e-4 c 0.006,0.0574 0.0117,0.1218 0.0152,0.1916 0.003,0.0719 0.006,0.1491 0.006,0.2302 v 4.4489 c 0,0.0821 -0.002,0.1607 -0.006,0.233 -0.004,0.0715 -0.01,0.1378 -0.0177,0.1951 v 4e-4 c -0.008,0.062 -0.023,0.1215 -0.0432,0.176 -0.0209,0.0577 -0.0488,0.1098 -0.0818,0.1541 l -3e-4,-4e-4 c -0.0333,0.0467 -0.0748,0.0878 -0.1236,0.1229 l -7e-4,7e-4 c -0.0464,0.0329 -0.102,0.0627 -0.1651,0.0871 l -0.002,0.001 c -0.056,0.0205 -0.1232,0.0414 -0.1997,0.0612 l -0.1389,0.033 v 0.0953 h 6.8862 l 0.1193,-1.6129 h -0.7625 c -0.0315,0.0751 -0.0623,0.1449 -0.0917,0.209 l -4e-4,7e-4 c -0.0418,0.09 -0.0825,0.1682 -0.1193,0.233 l -0.001,0.002 c -0.0379,0.0631 -0.0755,0.1222 -0.1116,0.1746 -0.0358,0.0521 -0.0726,0.0999 -0.1098,0.1424 -0.0343,0.0407 -0.0729,0.0814 -0.1147,0.1207 l -4e-4,4e-4 c -0.0414,0.0386 -0.086,0.0765 -0.1317,0.1108 -0.0453,0.0344 -0.0932,0.0666 -0.1417,0.0957 h -3e-4 c -0.0507,0.0297 -0.101,0.0552 -0.1495,0.0758 l -0.004,0.001 c -0.0527,0.0205 -0.1087,0.0386 -0.1654,0.0527 -0.0573,0.0146 -0.1172,0.0266 -0.1781,0.0347 h -7e-4 c -0.0623,0.008 -0.1318,0.0146 -0.2058,0.0185 h -3e-4 c -0.0762,0.004 -0.1569,0.006 -0.2405,0.006 h -1.5781 -0.1349 v -0.1349 -2.7546 -0.1349 h 0.1349 0.9598 c 0.1168,0 0.2224,0.006 0.3148,0.0177 0.0967,0.0124 0.1795,0.0326 0.2465,0.0588 v 3e-4 c 0.0676,0.0266 0.1321,0.0627 0.1902,0.1063 0.0577,0.0435 0.1122,0.0977 0.1611,0.1593 l 0.001,0.001 c 0.046,0.0599 0.091,0.1325 0.1317,0.2164 0.0276,0.0567 0.0549,0.1193 0.0811,0.1888 h 0.5921 v -1.8261 h -0.5924 c -0.0277,0.0719 -0.056,0.1382 -0.085,0.1977 -0.0418,0.086 -0.0875,0.1593 -0.1346,0.2174 -0.0471,0.0581 -0.101,0.1094 -0.1608,0.1519 l 3e-4,4e-4 c -0.0598,0.0428 -0.1271,0.0779 -0.2008,0.1031 v -4e-4 c -0.0697,0.0248 -0.1508,0.0439 -0.2433,0.0556 -0.0899,0.0113 -0.1916,0.0174 -0.302,0.0174 h -0.9598 -0.1349 v -0.135 -2.4762 -0.1349 h 0.1349 1.5855 c 0.1895,0 0.3545,0.009 0.4934,0.0265 0.1445,0.0181 0.2624,0.0468 0.3513,0.085 l 7e-4,7e-4 c 0.0836,0.0365 0.164,0.0808 0.2376,0.1307 h 4e-4 c 0.0733,0.0503 0.1424,0.1084 0.204,0.1714 l 0.001,0.001 c 0.0624,0.0655 0.1314,0.159 0.2054,0.2798 0.0581,0.0952 0.1212,0.2093 0.1874,0.3421 z m 14.6598,5.6717 h -3.9754 -0.1349 v -0.1349 -0.34 -0.114 l 0.1126,-0.0188 c 0.1948,-0.0326 0.3513,-0.073 0.4664,-0.1197 l 4e-4,7e-4 c 0.0977,-0.04 0.1618,-0.0829 0.1898,-0.1261 l 4e-4,-0.001 c 0.034,-0.051 0.0605,-0.1289 0.0786,-0.232 0.0198,-0.114 0.0301,-0.2564 0.0301,-0.426 v -4.9163 h -1.3514 c -0.0482,0.3658 -0.1148,0.7447 -0.1991,1.135 -0.0931,0.4314 -0.2093,0.8797 -0.3463,1.3412 v 7e-4 c -0.1375,0.4593 -0.2834,0.8864 -0.4364,1.2792 v 3e-4 c -0.1522,0.3907 -0.3127,0.7462 -0.4795,1.0639 -0.1693,0.3223 -0.3446,0.5943 -0.5234,0.8131 -0.1842,0.2253 -0.3761,0.3988 -0.5727,0.5196 h -3e-4 c -0.1952,0.1197 -0.4183,0.21 -0.6673,0.2695 -0.2464,0.0588 -0.5184,0.0889 -0.8124,0.0889 -0.221,0 -0.4352,-0.0106 -0.6417,-0.0319 -0.2079,-0.0212 -0.4069,-0.0531 -0.5957,-0.0949 l -0.1059,-0.0237 v -0.1077 -1.2487 -0.135 h 0.135 0.9303 0.1073 l 0.0241,0.1049 c 0.0276,0.1204 0.0761,0.2093 0.1441,0.2649 0.067,0.0549 0.1601,0.0828 0.2781,0.0828 0.1048,0 0.2075,-0.0166 0.3063,-0.0492 0.0995,-0.0329 0.1973,-0.0832 0.2908,-0.1494 l 3e-4,-4e-4 c 0.0928,-0.0652 0.1959,-0.182 0.306,-0.3481 0.1165,-0.175 0.2401,-0.4027 0.369,-0.6811 v -7e-4 c 0.1335,-0.2868 0.2614,-0.601 0.3836,-0.9409 l -7e-4,-4e-4 c 0.1243,-0.3478 0.2447,-0.7249 0.3591,-1.1287 0.1147,-0.4044 0.2015,-0.7557 0.2596,-1.0518 0.0563,-0.2886 0.085,-0.522 0.085,-0.6995 0,-0.1133 -0.0121,-0.2068 -0.0347,-0.279 h 3e-4 c -0.0184,-0.0585 -0.045,-0.1017 -0.0779,-0.1275 l -0.001,-0.001 c -0.0396,-0.0319 -0.0998,-0.0605 -0.1785,-0.0839 -0.0871,-0.0255 -0.1951,-0.045 -0.3198,-0.0563 l -0.1229,-0.0114 v -0.1225 -0.34 -0.1349 h 0.135 6.5858 0.1349 v 0.1349 0.34 0.1123 l -0.1112,0.0202 c -0.164,0.0293 -0.3007,0.0633 -0.408,0.1005 -0.0956,0.0337 -0.1654,0.0691 -0.2064,0.1056 -0.0323,0.0287 -0.0599,0.0949 -0.0808,0.1972 -0.0248,0.1212 -0.0375,0.2876 -0.0375,0.4962 v 4.2941 c 0,0.1951 0.0124,0.3541 0.0361,0.4749 0.0209,0.1055 0.0482,0.1771 0.0807,0.2118 l 0.001,0.001 c 0.0354,0.039 0.1016,0.0765 0.1965,0.1116 v 4e-4 c 0.1059,0.0393 0.2458,0.0747 0.4172,0.1048 l 0.1119,0.0195 v 0.1133 0.34 0.1349 z m -3.8404,-0.2698 h 3.7055 v -0.0935 c -0.1371,-0.028 -0.255,-0.0606 -0.3528,-0.0971 v 4e-4 c -0.1353,-0.05 -0.2366,-0.1112 -0.3021,-0.1831 l 4e-4,-4e-4 c -0.0684,-0.0736 -0.118,-0.188 -0.1484,-0.3421 -0.0269,-0.1374 -0.0411,-0.3138 -0.0411,-0.5266 v -4.2941 c 0,-0.2238 0.0149,-0.408 0.0439,-0.55 0.0333,-0.1618 0.0889,-0.2766 0.1651,-0.3446 0.0672,-0.0598 0.1671,-0.1133 0.2971,-0.1587 0.0942,-0.0325 0.2072,-0.0626 0.3379,-0.0899 v -0.0939 h -6.316 v 0.0854 c 0.0939,0.0131 0.1771,0.0297 0.2493,0.0513 h 7e-4 c 0.1102,0.0326 0.2005,0.0773 0.2688,0.1318 0.0758,0.0595 0.1325,0.1463 0.1679,0.2578 h 4e-4 c 0.0311,0.0988 0.0474,0.2199 0.0474,0.3605 0,0.1941 -0.0304,0.4445 -0.0899,0.7505 v 7e-4 c -0.0585,0.2989 -0.1474,0.6573 -0.2653,1.0731 -0.1179,0.4161 -0.2398,0.7989 -0.3641,1.1464 h -7e-4 c -0.1275,0.3555 -0.2581,0.6771 -0.392,0.9647 h -4e-4 c -0.1349,0.2918 -0.2652,0.5316 -0.3885,0.7164 -0.1292,0.1952 -0.2553,0.3354 -0.3754,0.4197 -0.1165,0.0822 -0.2376,0.1448 -0.3619,0.1859 -0.1261,0.0415 -0.2571,0.0627 -0.3906,0.0627 -0.1821,0 -0.3322,-0.0485 -0.4488,-0.1438 -0.092,-0.0754 -0.1611,-0.1788 -0.2064,-0.3088 h -0.6938 v 1.0047 c 0.1466,0.0287 0.3,0.0514 0.4593,0.0677 0.1927,0.0195 0.3977,0.0297 0.6141,0.0297 0.2766,0 0.5274,-0.0272 0.7501,-0.0804 0.2207,-0.0527 0.4176,-0.1324 0.589,-0.2376 0.1703,-0.1045 0.3392,-0.2585 0.5046,-0.4608 0.1693,-0.2071 0.3347,-0.4635 0.4944,-0.7678 0.1619,-0.3081 0.3177,-0.6541 0.4668,-1.0362 0.1477,-0.3793 0.2911,-0.7997 0.4285,-1.259 h 4e-4 c 0.1346,-0.4544 0.249,-0.896 0.341,-1.3214 0.0918,-0.4242 0.1619,-0.8347 0.2097,-1.2292 l 0.0145,-0.119 h 0.1194 1.6053 0.135 v 0.1349 5.0513 c 0,0.1841 -0.0117,0.3421 -0.0344,0.4721 -0.0248,0.1406 -0.0648,0.2532 -0.1197,0.3354 l -4e-4,-4e-4 c -0.0587,0.0892 -0.1636,0.1657 -0.3134,0.227 v 7e-4 c -0.1083,0.0443 -0.2458,0.0825 -0.4104,0.1148 z m 13.2289,-6.9085 v 0.34 0.1201 l -0.12,0.0138 c -0.176,0.0194 -0.3205,0.0488 -0.431,0.086 h -4e-4 c -0.0974,0.0326 -0.1671,0.0712 -0.2061,0.1137 -0.0382,0.0422 -0.069,0.1119 -0.0906,0.2083 v 7e-4 c -0.0248,0.1087 -0.0376,0.2486 -0.0376,0.4175 v 1.5487 c 0.2731,-0.0173 0.5312,-0.0315 0.7742,-0.0407 0.2851,-0.0114 0.5422,-0.0174 0.771,-0.0174 0.6141,0 1.1542,0.0425 1.6177,0.1265 0.4689,0.085 0.8617,0.2139 1.1758,0.3853 h 4e-4 c 0.323,0.1774 0.567,0.4087 0.7306,0.6931 0.1629,0.2833 0.2451,0.6169 0.2451,0.9994 0,0.7363 -0.3471,1.2884 -1.0398,1.6549 -0.6648,0.3524 -1.6528,0.5284 -2.9636,0.5284 h -4.4789 -0.135 v -0.1349 -0.34 -0.113 l 0.112,-0.0198 c 0.1572,-0.0276 0.2861,-0.0627 0.3839,-0.102 0.085,-0.0347 0.1434,-0.0712 0.1746,-0.1094 l -4e-4,-4e-4 c 0.0322,-0.0407 0.0584,-0.1091 0.0769,-0.2033 v -3e-4 c 0.0212,-0.107 0.0322,-0.243 0.0322,-0.4062 v -4.4489 c 0,-0.1689 -0.0103,-0.3078 -0.0305,-0.4147 -0.0177,-0.0939 -0.0418,-0.1601 -0.0715,-0.1973 l -4e-4,-0.001 c -0.0287,-0.0365 -0.0864,-0.073 -0.1717,-0.1077 l -4e-4,4e-4 c -0.0999,-0.0404 -0.232,-0.0769 -0.3945,-0.1073 l -0.1102,-0.0209 v -0.1116 -0.34 -0.1349 h 0.135 3.9183 0.1349 z m -0.2698,0.2217 v -0.0868 h -3.6485 v 0.095 c 0.1325,0.0294 0.2451,0.063 0.3361,0.0998 l 4e-4,7e-4 c 0.1292,0.0528 0.2234,0.1166 0.2815,0.1902 l 4e-4,-3e-4 c 0.057,0.0715 0.0995,0.1774 0.1253,0.3155 0.0234,0.1243 0.0354,0.2801 0.0354,0.4643 v 4.4489 c 0,0.182 -0.0127,0.335 -0.0371,0.4586 -0.027,0.137 -0.0712,0.244 -0.1307,0.3191 l -7e-4,3e-4 c -0.0609,0.0758 -0.1555,0.1396 -0.2834,0.1916 -0.0892,0.0361 -0.1986,0.0684 -0.3272,0.0956 v 0.0943 h 4.344 c 1.2672,0 2.2138,-0.1658 2.8382,-0.4966 0.5964,-0.3155 0.8953,-0.7887 0.8953,-1.4169 0,-0.3358 -0.0701,-0.6251 -0.2082,-0.8656 -0.1382,-0.2401 -0.3478,-0.4374 -0.6272,-0.5911 -0.288,-0.1572 -0.6535,-0.2765 -1.094,-0.3562 -0.4455,-0.0808 -0.9697,-0.1215 -1.5703,-0.1215 -0.2334,0 -0.4873,0.006 -0.7604,0.0166 -0.2741,0.0107 -0.5787,0.028 -0.9112,0.05 l -0.1435,0.009 v -0.1438 -1.6925 c 0,-0.1884 0.0153,-0.3485 0.0447,-0.4777 0.0322,-0.1424 0.0843,-0.2529 0.1544,-0.3301 l 3e-4,-4e-4 c 0.0702,-0.0765 0.1768,-0.1395 0.3188,-0.187 0.102,-0.0343 0.2249,-0.0623 0.3676,-0.0832 z m -0.6159,3.5196 v 2.5531 c 0.5642,0.0226 1.0359,0.0131 1.4127,-0.0277 0.3949,-0.0428 0.6825,-0.1193 0.8613,-0.227 l -3e-4,-3e-4 c 0.1742,-0.1063 0.3052,-0.244 0.3917,-0.4109 0.0878,-0.1696 0.1317,-0.3739 0.1317,-0.6123 0,-0.4306 -0.1466,-0.7522 -0.4391,-0.9633 -0.306,-0.2206 -0.776,-0.3318 -1.4085,-0.3318 h -0.2557 c -0.1735,0 -0.3262,0.003 -0.4576,0.007 -0.0853,0.003 -0.1639,0.008 -0.2362,0.0128 z m -0.2699,2.682 v -2.8056 -0.1222 l 0.1222,-0.0117 c 0.1109,-0.0106 0.2366,-0.0191 0.3747,-0.0244 0.1442,-0.005 0.3003,-0.008 0.4668,-0.008 h 0.2557 c 0.6895,0 1.2119,0.1282 1.5657,0.3836 0.3676,0.2649 0.5518,0.6594 0.5518,1.1814 0,0.2812 -0.0542,0.527 -0.1622,0.7356 -0.1095,0.2114 -0.2734,0.3846 -0.4909,0.5171 h -7e-4 c -0.2139,0.1296 -0.5387,0.2188 -0.9721,0.2656 -0.4194,0.0457 -0.9478,0.0534 -1.5824,0.0233 l -0.1286,-0.006 z" />
  </g>
</svg>
